<svg xmlns="http://www.w3.org/2000/svg" version="1.0" viewBox="0 0 1024 1024"><path d="M746.6 286.1c-24.6 2.7-74.6 17.1-123.4 35.5-88 33.2-231.6 102.2-295.7 142.2-21.5 13.5-24.2 16.8-9.5 11.6 4.1-1.4 21.9-7.5 39.5-13.4 17.6-6 46.6-15.9 64.5-22 86.1-29.7 144.6-47.9 159.6-49.6 6.4-.8 11.7 1.5 11.2 4.9-.6 4.2-19.3 15.3-50.8 30.1-109.7 51.5-190.7 93.8-227.7 118.8-12.7 8.6-15.5 10.8-13.5 10.8 1.2 0 38.9-12.8 79.7-27 37.1-13 127.9-43.3 153.8-51.4 9.8-3.1 20.9-6.1 24.7-6.8 6.2-1.1 7.1-1 8.8.6 2.9 2.6 1.8 4.8-6.7 13.1-16.6 16.2-35.4 29.5-145 102.7-97.1 64.8-119.1 80.4-117.5 83 2.9 4.7 60.7-10.9 119.9-32.4 52-18.9 106.8-42 150-63.3 67.8-33.4 85.3-49.5 124.7-115.5 11.5-19.3 32-55.8 41.8-74.5 3.4-6.6 7.7-14.7 9.5-18 6-11 19.3-40 22.4-49.1 8.5-24.9 3.2-32.9-20.3-30.3"/></svg>